<svg width="45" height="45" viewBox="0 0 45 45" fill="none" xmlns="http://www.w3.org/2000/svg">
<circle cx="22.5" cy="22.5" r="22.5" fill="white"/>
<path d="M22.5 29.7918C23.2736 29.7918 24.0154 29.4845 24.5624 28.9376C25.1094 28.3906 25.4167 27.6487 25.4167 26.8752C25.4167 26.1016 25.1094 25.3598 24.5624 24.8128C24.0154 24.2658 23.2736 23.9585 22.5 23.9585C21.7265 23.9585 20.9846 24.2658 20.4376 24.8128C19.8906 25.3598 19.5833 26.1016 19.5833 26.8752C19.5833 27.6487 19.8906 28.3906 20.4376 28.9376C20.9846 29.4845 21.7265 29.7918 22.5 29.7918ZM31.25 16.6668C32.0236 16.6668 32.7654 16.9741 33.3124 17.5211C33.8594 18.0681 34.1667 18.8099 34.1667 19.5835V34.1668C34.1667 34.9404 33.8594 35.6822 33.3124 36.2292C32.7654 36.7762 32.0236 37.0835 31.25 37.0835H13.75C12.9765 37.0835 12.2346 36.7762 11.6876 36.2292C11.1406 35.6822 10.8333 34.9404 10.8333 34.1668V19.5835C10.8333 18.8099 11.1406 18.0681 11.6876 17.5211C12.2346 16.9741 12.9765 16.6668 13.75 16.6668H15.2083V13.7502C15.2083 11.8163 15.9766 9.96163 17.344 8.59418C18.7115 7.22672 20.5661 6.4585 22.5 6.4585C23.4576 6.4585 24.4057 6.6471 25.2904 7.01354C26.1751 7.37998 26.9789 7.91708 27.656 8.59418C28.3331 9.27127 28.8702 10.0751 29.2366 10.9598C29.6031 11.8444 29.7917 12.7926 29.7917 13.7502V16.6668H31.25ZM22.5 9.37516C21.3397 9.37516 20.2269 9.8361 19.4064 10.6566C18.5859 11.477 18.125 12.5898 18.125 13.7502V16.6668H26.875V13.7502C26.875 12.5898 26.4141 11.477 25.5936 10.6566C24.7731 9.8361 23.6603 9.37516 22.5 9.37516Z" fill="#C0860C"/>
</svg>
