<svg width="878" height="792" viewBox="0 0 878 792" fill="none" xmlns="http://www.w3.org/2000/svg">
<g filter="url(#filter0_d_335_2533)">
<path d="M264.277 761C246.899 761 230.768 751.977 221.672 737.17L19.284 407.688C9.31422 391.458 9.43238 370.973 19.5887 354.858L221.6 34.3401C230.756 19.8125 246.727 11 263.899 11L621.929 11C640.247 11 657.099 21.0173 665.852 37.1092L840.171 357.592C848.182 372.322 848.278 390.087 840.424 404.901L665.742 734.419C657.072 750.773 640.076 761 621.565 761L264.277 761Z" fill="url(#paint0_linear_335_2533)"/>
</g>
<defs>
<filter id="filter0_d_335_2533" x="0.888184" y="0" width="876.359" height="792" filterUnits="userSpaceOnUse" color-interpolation-filters="sRGB">
<feFlood flood-opacity="0" result="BackgroundImageFix"/>
<feColorMatrix in="SourceAlpha" type="matrix" values="0 0 0 0 0 0 0 0 0 0 0 0 0 0 0 0 0 0 127 0" result="hardAlpha"/>
<feMorphology radius="1" operator="dilate" in="SourceAlpha" result="effect1_dropShadow_335_2533"/>
<feOffset dx="10" dy="10"/>
<feGaussianBlur stdDeviation="10"/>
<feComposite in2="hardAlpha" operator="out"/>
<feColorMatrix type="matrix" values="0 0 0 0 0 0 0 0 0 0 0 0 0 0 0 0 0 0 0.7 0"/>
<feBlend mode="normal" in2="BackgroundImageFix" result="effect1_dropShadow_335_2533"/>
<feBlend mode="normal" in="SourceGraphic" in2="effect1_dropShadow_335_2533" result="shape"/>
</filter>
<linearGradient id="paint0_linear_335_2533" x1="3" y1="381.334" x2="853" y2="390.666" gradientUnits="userSpaceOnUse">
<stop stop-color="#C0860C"/>
<stop offset="1" stop-color="#012150"/>
</linearGradient>
</defs>
</svg>
